<?xml version="1.0" encoding="UTF-8"?>
<svg id="Layer_1" data-name="Layer 1" xmlns="http://www.w3.org/2000/svg" viewBox="0 0 1080 1080">
  <defs>
    <style>
      .cls-1 {
        fill: #f15822;
      }

      .cls-2 {
        fill: #fff;
      }
    </style>
  </defs>
  <path class="cls-1" d="M270.91,680.67c141.12-33.04,278.21-90,446.84-211.09,31.24-23.62,61.59-48.14,91.34-70.26-120.94,47.54-295.7,121.69-387.34,185.52-56.96,37.37-105.69,64.43-150.84,95.83Z"/>
  <g>
    <path class="cls-2" d="M596.05,331.04c7.08-10.65,11.21-23.43,11.21-37.17,0-37.14-30.11-67.26-67.26-67.26s-67.26,30.11-67.26,67.26c0,13.45,3.96,25.96,10.76,36.47v.02s-119.48,263.81-119.48,263.81c14.41-8.95,29.25-18.33,44.77-28.49,18.47-12.86,40.12-26.06,63.92-39.37l66.48-151.3,42.23,96.11c21.31-9.98,43.08-19.82,64.91-29.42l-50.28-110.66Z"/>
    <path class="cls-2" d="M319.64,692.18l-12.23,27h0c-34.08,3.29-60.75,32-60.75,66.94,0,14.68,4.69,28.24,12.67,39.29h0c6.11,8.48,14.14,15.47,23.45,20.34,9.31,4.88,19.91,7.63,31.14,7.63,5.47,0,10.8-.66,15.89-1.89,29.48-7.14,51.37-33.68,51.37-65.37,0-11.79-3.04-22.86-8.35-32.49,0,0,0,0,0,0l40.12-91.28c-30.6,11.27-61.61,21.19-93.3,29.84Z"/>
    <path class="cls-2" d="M772.39,719.18s0,0,0,0h0s-89.57-197.16-89.57-197.16c-20.74,13.9-41.29,26.98-61.73,39.31l85.23,193.96h0c-4.79,9.24-7.48,19.72-7.48,30.83,0,31.02,20.99,57.12,49.54,64.89,5.63,1.55,11.59,2.37,17.73,2.37,22.47,0,42.37-11.01,54.57-27.95,8.01-11.05,12.7-24.63,12.7-39.31,0-35.01-26.78-63.78-60.96-66.94Z"/>
  </g>
</svg>